<svg xmlns="http://www.w3.org/2000/svg" viewBox="0 0 512 512" role="img" aria-label="RIFFLAB">
  <defs>
    <linearGradient id="gold" x1="90" y1="70" x2="430" y2="440" gradientUnits="userSpaceOnUse">
      <stop offset="0" stop-color="#ffe7a5"/>
      <stop offset="0.42" stop-color="#d9aa55"/>
      <stop offset="1" stop-color="#8f6420"/>
    </linearGradient>
    <radialGradient id="bg" cx="50%" cy="35%" r="75%">
      <stop offset="0" stop-color="#1c170d"/>
      <stop offset="0.55" stop-color="#080807"/>
      <stop offset="1" stop-color="#020303"/>
    </radialGradient>
  </defs>
  <rect width="512" height="512" rx="92" fill="url(#bg)"/>
  <rect x="34" y="34" width="444" height="444" rx="70" fill="none" stroke="#d9aa55" stroke-opacity="0.72" stroke-width="12"/>
  <path d="M152 363V137h114c62 0 101 35 101 89 0 35-18 62-48 76l55 61h-83l-45-51h-29v51h-65Zm65-108h44c27 0 42-12 42-31 0-20-15-31-42-31h-44v62Z" fill="url(#gold)"/>
  <path d="M104 122v268M124 107v298M408 122v268M388 107v298" stroke="#d9aa55" stroke-opacity="0.36" stroke-width="8" stroke-linecap="round"/>
  <path d="M112 404h288" stroke="#ffe7a5" stroke-opacity="0.34" stroke-width="5" stroke-linecap="round"/>
</svg>
