<svg xmlns="http://www.w3.org/2000/svg" viewBox="0 0 912 2048" role="img" aria-label="Fretboard Training guitar headstock">
  <defs>
    <radialGradient id="bgGlow" cx="50%" cy="40%" r="62%">
      <stop offset="0" stop-color="#0b3141"/>
      <stop offset="0.42" stop-color="#071622"/>
      <stop offset="1" stop-color="#02070c"/>
    </radialGradient>
    <linearGradient id="wood" x1="0" y1="0" x2="1" y2="0">
      <stop offset="0" stop-color="#2a1209"/>
      <stop offset="0.2" stop-color="#5b2a12"/>
      <stop offset="0.5" stop-color="#8a421f"/>
      <stop offset="0.72" stop-color="#55230f"/>
      <stop offset="1" stop-color="#1d0b06"/>
    </linearGradient>
    <linearGradient id="neckWood" x1="0" y1="0" x2="1" y2="0">
      <stop offset="0" stop-color="#130c09"/>
      <stop offset="0.5" stop-color="#342116"/>
      <stop offset="1" stop-color="#130c09"/>
    </linearGradient>
    <linearGradient id="metal" x1="0" y1="0" x2="1" y2="1">
      <stop offset="0" stop-color="#ffffff"/>
      <stop offset="0.28" stop-color="#cfd5d8"/>
      <stop offset="0.58" stop-color="#5e6368"/>
      <stop offset="1" stop-color="#f7f7f4"/>
    </linearGradient>
    <linearGradient id="goldString" x1="0" y1="0" x2="1" y2="0">
      <stop offset="0" stop-color="#8d5a22"/>
      <stop offset="0.42" stop-color="#f5c06a"/>
      <stop offset="1" stop-color="#6f4419"/>
    </linearGradient>
    <linearGradient id="steelString" x1="0" y1="0" x2="1" y2="0">
      <stop offset="0" stop-color="#565f63"/>
      <stop offset="0.48" stop-color="#eef3f4"/>
      <stop offset="1" stop-color="#737b7d"/>
    </linearGradient>
    <filter id="softShadow" x="-30%" y="-20%" width="160%" height="150%">
      <feDropShadow dx="0" dy="24" stdDeviation="24" flood-color="#000000" flood-opacity="0.58"/>
    </filter>
    <filter id="glow" x="-60%" y="-60%" width="220%" height="220%">
      <feGaussianBlur stdDeviation="5" result="blur"/>
      <feMerge>
        <feMergeNode in="blur"/>
        <feMergeNode in="SourceGraphic"/>
      </feMerge>
    </filter>
    <pattern id="grain" width="40" height="80" patternUnits="userSpaceOnUse">
      <path d="M8 0c18 30-10 48 8 80M22 0c-12 24 18 42 2 80M35 0c-16 22 9 48-6 80" fill="none" stroke="#f3b77a" stroke-opacity="0.12" stroke-width="3"/>
      <path d="M2 0c10 26-6 42 4 80M30 0c12 32-18 48 4 80" fill="none" stroke="#1a0803" stroke-opacity="0.32" stroke-width="2"/>
    </pattern>
  </defs>

  <g filter="url(#softShadow)">
    <path d="M274 330L456 250L638 330L674 1372c2 54-24 104-70 148l-75 72v110H383v-110l-75-72c-46-44-72-94-70-148z" fill="url(#wood)" stroke="#d7c8ad" stroke-width="7" stroke-linejoin="round"/>
    <path d="M292 348L456 278L620 348L653 1352c1 48-21 90-60 128l-85 82v115H404v-115l-85-82c-39-38-61-80-60-128z" fill="url(#grain)" opacity="0.82"/>
    <path d="M301 356L456 292L611 356L640 1337c2 43-18 80-54 115l-87 84v126H413v-126l-87-84c-36-35-56-72-54-115z" fill="none" stroke="#ffffff" stroke-opacity="0.5" stroke-width="3" stroke-linejoin="round"/>

    <path d="M384 1550h144v498H384z" fill="url(#neckWood)" stroke="#d8c8ad" stroke-width="5"/>
    <path d="M369 1500h174c14 0 24 11 24 24v46H345v-46c0-13 11-24 24-24z" fill="#eee5d4" stroke="#cdbb9a" stroke-width="4"/>
    <rect x="366" y="1742" width="180" height="9" rx="4" fill="url(#metal)"/>
    <rect x="366" y="1902" width="180" height="9" rx="4" fill="url(#metal)"/>

    <path d="M416 1238l40-56 40 56v260H416z" fill="#0b0f12" stroke="#b6b8b8" stroke-width="5"/>
    <circle cx="440" cy="1320" r="12" fill="url(#metal)" stroke="#111" stroke-width="3"/>
    <circle cx="482" cy="1454" r="12" fill="url(#metal)" stroke="#111" stroke-width="3"/>

    <g font-family="Inter, Arial, sans-serif" text-anchor="middle">
      <text x="456" y="572" font-size="38" font-weight="900" letter-spacing="12" fill="#f2d193">FRETBOARD</text>
      <text x="456" y="610" font-size="18" font-weight="900" letter-spacing="12" fill="#d9aa55">TRAINING</text>
    </g>
  </g>

  <g>
    <g transform="translate(190 640)">
      <rect x="-105" y="-44" width="92" height="88" rx="20" fill="url(#metal)" stroke="#f8fafc" stroke-width="3"/>
      <rect x="-15" y="-12" width="52" height="24" rx="8" fill="url(#metal)"/>
      <rect x="18" y="-16" width="28" height="32" rx="8" fill="#20262b" stroke="#aab3b8" stroke-width="2"/>
      <circle cx="83" cy="0" r="44" fill="url(#metal)" stroke="#1d2428" stroke-width="4"/>
      <circle cx="83" cy="0" r="25" fill="#111820" stroke="#e4e7e9" stroke-width="3"/>
      <circle cx="83" cy="0" r="17" fill="none" stroke="#d9aa55" stroke-width="3" stroke-dasharray="5 4"/>
      <circle cx="83" cy="0" r="9" fill="#c6cdd0"/>
    </g>
    <g transform="translate(190 915)">
      <rect x="-105" y="-44" width="92" height="88" rx="20" fill="url(#metal)" stroke="#f8fafc" stroke-width="3"/>
      <rect x="-15" y="-12" width="52" height="24" rx="8" fill="url(#metal)"/>
      <rect x="18" y="-16" width="28" height="32" rx="8" fill="#20262b" stroke="#aab3b8" stroke-width="2"/>
      <circle cx="83" cy="0" r="44" fill="url(#metal)" stroke="#1d2428" stroke-width="4"/>
      <circle cx="83" cy="0" r="25" fill="#111820" stroke="#e4e7e9" stroke-width="3"/>
      <circle cx="83" cy="0" r="17" fill="none" stroke="#d9aa55" stroke-width="3" stroke-dasharray="5 4"/>
      <circle cx="83" cy="0" r="9" fill="#c6cdd0"/>
    </g>
    <g transform="translate(190 1190)">
      <rect x="-105" y="-44" width="92" height="88" rx="20" fill="url(#metal)" stroke="#f8fafc" stroke-width="3"/>
      <rect x="-15" y="-12" width="52" height="24" rx="8" fill="url(#metal)"/>
      <rect x="18" y="-16" width="28" height="32" rx="8" fill="#20262b" stroke="#aab3b8" stroke-width="2"/>
      <circle cx="83" cy="0" r="44" fill="url(#metal)" stroke="#1d2428" stroke-width="4"/>
      <circle cx="83" cy="0" r="25" fill="#111820" stroke="#e4e7e9" stroke-width="3"/>
      <circle cx="83" cy="0" r="17" fill="none" stroke="#d9aa55" stroke-width="3" stroke-dasharray="5 4"/>
      <circle cx="83" cy="0" r="9" fill="#c6cdd0"/>
    </g>

    <g transform="translate(722 640) scale(-1 1)">
      <rect x="-105" y="-44" width="92" height="88" rx="20" fill="url(#metal)" stroke="#f8fafc" stroke-width="3"/>
      <rect x="-15" y="-12" width="52" height="24" rx="8" fill="url(#metal)"/>
      <rect x="18" y="-16" width="28" height="32" rx="8" fill="#20262b" stroke="#aab3b8" stroke-width="2"/>
      <circle cx="83" cy="0" r="44" fill="url(#metal)" stroke="#1d2428" stroke-width="4"/>
      <circle cx="83" cy="0" r="25" fill="#111820" stroke="#e4e7e9" stroke-width="3"/>
      <circle cx="83" cy="0" r="17" fill="none" stroke="#d7dde0" stroke-width="3" stroke-dasharray="5 4"/>
      <circle cx="83" cy="0" r="9" fill="#c6cdd0"/>
    </g>
    <g transform="translate(722 915) scale(-1 1)">
      <rect x="-105" y="-44" width="92" height="88" rx="20" fill="url(#metal)" stroke="#f8fafc" stroke-width="3"/>
      <rect x="-15" y="-12" width="52" height="24" rx="8" fill="url(#metal)"/>
      <rect x="18" y="-16" width="28" height="32" rx="8" fill="#20262b" stroke="#aab3b8" stroke-width="2"/>
      <circle cx="83" cy="0" r="44" fill="url(#metal)" stroke="#1d2428" stroke-width="4"/>
      <circle cx="83" cy="0" r="25" fill="#111820" stroke="#e4e7e9" stroke-width="3"/>
      <circle cx="83" cy="0" r="17" fill="none" stroke="#d7dde0" stroke-width="3" stroke-dasharray="5 4"/>
      <circle cx="83" cy="0" r="9" fill="#c6cdd0"/>
    </g>
    <g transform="translate(722 1190) scale(-1 1)">
      <rect x="-105" y="-44" width="92" height="88" rx="20" fill="url(#metal)" stroke="#f8fafc" stroke-width="3"/>
      <rect x="-15" y="-12" width="52" height="24" rx="8" fill="url(#metal)"/>
      <rect x="18" y="-16" width="28" height="32" rx="8" fill="#20262b" stroke="#aab3b8" stroke-width="2"/>
      <circle cx="83" cy="0" r="44" fill="url(#metal)" stroke="#1d2428" stroke-width="4"/>
      <circle cx="83" cy="0" r="25" fill="#111820" stroke="#e4e7e9" stroke-width="3"/>
      <circle cx="83" cy="0" r="17" fill="none" stroke="#d7dde0" stroke-width="3" stroke-dasharray="5 4"/>
      <circle cx="83" cy="0" r="9" fill="#c6cdd0"/>
    </g>
  </g>

  <g fill="none" stroke-linecap="round">
    <path d="M398 1500 C395 1320 334 1255 278 1192" stroke="url(#goldString)" stroke-width="6"/>
    <path d="M422 1500 C414 1228 332 1040 278 917" stroke="url(#goldString)" stroke-width="5"/>
    <path d="M444 1500 C438 1165 328 880 278 648" stroke="url(#goldString)" stroke-width="4.5"/>
    <path d="M468 1500 C470 1240 560 1002 634 642" stroke="url(#steelString)" stroke-width="3.5"/>
    <path d="M492 1500 C490 1220 557 1070 634 916" stroke="url(#steelString)" stroke-width="3"/>
    <path d="M516 1500 C512 1254 568 1140 634 1191" stroke="url(#steelString)" stroke-width="2.5"/>
    <g opacity="0.75" stroke="#ffffff" stroke-width="1">
      <line x1="398" y1="1500" x2="398" y2="2048"/>
      <line x1="422" y1="1500" x2="422" y2="2048"/>
      <line x1="444" y1="1500" x2="444" y2="2048"/>
      <line x1="468" y1="1500" x2="468" y2="2048"/>
      <line x1="492" y1="1500" x2="492" y2="2048"/>
      <line x1="516" y1="1500" x2="516" y2="2048"/>
    </g>
  </g>

  <rect x="0" y="0" width="912" height="2048" fill="none"/>
</svg>
